<svg width="32" height="32" viewBox="0 0 32 32" fill="none" xmlns="http://www.w3.org/2000/svg">
<path d="M20.3333 8.27083C20.3333 7.20078 21.2008 6.33333 22.2708 6.33333H28.7292C29.7992 6.33333 30.6667 7.20078 30.6667 8.27083V14.7292C30.6667 15.7992 29.7992 16.6667 28.7292 16.6667H22.2708C21.2008 16.6667 20.3333 15.7992 20.3333 14.7292V8.27083Z" fill="#2BA5E7"/>
<path d="M3 7.27084C3 5.6485 4.31516 4.33333 5.9375 4.33333H15.7292C17.3515 4.33333 18.6667 5.6485 18.6667 7.27083V17.0625C18.6667 18.6848 17.3515 20 15.7292 20H5.9375C4.31517 20 3 18.6848 3 17.0625V7.27084Z" fill="#EF5198"/>
<path d="M5.33334 9.33334C5.33334 7.1242 7.1242 5.33333 9.33334 5.33333H22.6667C24.8758 5.33333 26.6667 7.12419 26.6667 9.33333V22.6667C26.6667 24.8758 24.8758 26.6667 22.6667 26.6667H9.33335C7.12421 26.6667 5.33334 24.8758 5.33334 22.6667V9.33334Z" fill="#32B9A6"/>
<path d="M20.6667 22.1042C20.6667 21.3103 21.3102 20.6667 22.1042 20.6667H26.8958C27.6897 20.6667 28.3333 21.3103 28.3333 22.1042V26.8958C28.3333 27.6897 27.6897 28.3333 26.8958 28.3333H22.1042C21.3102 28.3333 20.6667 27.6897 20.6667 26.8958V22.1042Z" fill="#FAC710"/>
<path d="M9.92614 18H8.37926V13.6364H9.93892C10.3778 13.6364 10.7557 13.7237 11.0724 13.8984C11.3892 14.0717 11.6328 14.321 11.8033 14.6463C11.9751 14.9716 12.0611 15.3608 12.0611 15.8139C12.0611 16.2685 11.9751 16.6591 11.8033 16.9858C11.6328 17.3125 11.3878 17.5632 11.0682 17.7379C10.75 17.9126 10.3693 18 9.92614 18ZM9.30185 17.2095H9.88778C10.1605 17.2095 10.3899 17.1612 10.576 17.0646C10.7635 16.9666 10.9041 16.8153 10.9979 16.6108C11.093 16.4048 11.1406 16.1392 11.1406 15.8139C11.1406 15.4915 11.093 15.228 10.9979 15.0234C10.9041 14.8189 10.7642 14.6683 10.5781 14.5717C10.392 14.4751 10.1626 14.4268 9.88991 14.4268H9.30185V17.2095ZM13.2505 18H12.2619L13.7683 13.6364H14.9572L16.4615 18H15.4728L14.3798 14.6335H14.3457L13.2505 18ZM13.1887 16.2848H15.524V17.005H13.1887V16.2848ZM16.2873 14.397V13.6364H19.8711V14.397H18.5352V18H17.6232V14.397H16.2873ZM24.1122 15.1641H23.179C23.1619 15.0433 23.1271 14.9361 23.0746 14.8423C23.022 14.7472 22.9545 14.6662 22.8722 14.5994C22.7898 14.5327 22.6946 14.4815 22.5866 14.446C22.4801 14.4105 22.3643 14.3928 22.2393 14.3928C22.0135 14.3928 21.8168 14.4489 21.6491 14.5611C21.4815 14.6719 21.3516 14.8338 21.2592 15.0469C21.1669 15.2585 21.1207 15.5156 21.1207 15.8182C21.1207 16.1293 21.1669 16.3906 21.2592 16.6023C21.353 16.8139 21.4837 16.9737 21.6513 17.0817C21.8189 17.1896 22.0128 17.2436 22.233 17.2436C22.3565 17.2436 22.4709 17.2273 22.576 17.1946C22.6825 17.1619 22.777 17.1143 22.8594 17.0518C22.9418 16.9879 23.0099 16.9105 23.0639 16.8196C23.1193 16.7287 23.1577 16.625 23.179 16.5085L24.1122 16.5128C24.0881 16.7131 24.0277 16.9062 23.9311 17.0923C23.8359 17.277 23.7074 17.4425 23.5455 17.5888C23.3849 17.7337 23.1932 17.8487 22.9702 17.9339C22.7486 18.0178 22.4979 18.0597 22.218 18.0597C21.8288 18.0597 21.4808 17.9716 21.174 17.7955C20.8686 17.6193 20.6271 17.3643 20.4496 17.0305C20.2734 16.6967 20.1854 16.2926 20.1854 15.8182C20.1854 15.3423 20.2749 14.9375 20.4538 14.6037C20.6328 14.2699 20.8757 14.0156 21.1825 13.8409C21.4893 13.6648 21.8345 13.5767 22.218 13.5767C22.4709 13.5767 22.7053 13.6122 22.9212 13.6832C23.1385 13.7543 23.331 13.858 23.4986 13.9943C23.6662 14.1293 23.8026 14.2947 23.9077 14.4908C24.0142 14.6868 24.0824 14.9112 24.1122 15.1641Z" fill="white"/>
</svg>
