<svg width="32" height="32" viewBox="0 0 32 32" fill="none" xmlns="http://www.w3.org/2000/svg">
<path d="M20.8333 8.27083C20.8333 7.47693 21.4769 6.83334 22.2708 6.83334H28.7292C29.5231 6.83334 30.1667 7.47693 30.1667 8.27084V14.7292C30.1667 15.5231 29.5231 16.1667 28.7292 16.1667H22.2708C21.4769 16.1667 20.8333 15.5231 20.8333 14.7292V8.27083Z" stroke="#2BA5E7"/>
<path d="M3.5 7.27084C3.5 5.92464 4.59131 4.83334 5.9375 4.83334H15.7292C17.0754 4.83334 18.1667 5.92464 18.1667 7.27084V17.0625C18.1667 18.4087 17.0754 19.5 15.7292 19.5H5.9375C4.59131 19.5 3.5 18.4087 3.5 17.0625V7.27084Z" stroke="#EF5198"/>
<path d="M5.83334 9.33334C5.83334 7.40034 7.40035 5.83334 9.33334 5.83334H22.6667C24.5997 5.83334 26.1667 7.40034 26.1667 9.33334V22.6667C26.1667 24.5997 24.5997 26.1667 22.6667 26.1667H9.33335C7.40035 26.1667 5.83334 24.5997 5.83334 22.6667V9.33334Z" stroke="#32B9A6"/>
<path d="M21.1667 22.1042C21.1667 21.5864 21.5864 21.1667 22.1042 21.1667H26.8958C27.4136 21.1667 27.8333 21.5864 27.8333 22.1042V26.8958C27.8333 27.4136 27.4136 27.8333 26.8958 27.8333H22.1042C21.5864 27.8333 21.1667 27.4136 21.1667 26.8958V22.1042Z" stroke="#FAC710"/>
</svg>
